ffmpeg version N-86691-gc885356 Copyright (c) 2000-2017 the FFmpeg developers
  built with gcc 7.1.0 (GCC)
  configuration: --enable-gpl --enable-version3 --enable-cuda --enable-cuvid --enable-d3d11va --enable-dxva2 --enable-libmfx --enable-nvenc --enable-avisynth --enable-bzlib --enable-fontconfig --enable-frei0r --enable-gnutls --enable-iconv --enable-libass --enable-libbluray --enable-libbs2b --enable-libcaca --enable-libfreetype --enable-libgme --enable-libgsm --enable-libilbc --enable-libmodplug --enable-libmp3lame --enable-libopencore-amrnb --enable-libopencore-amrwb --enable-libopenh264 --enable-libopenjpeg --enable-libopus --enable-librtmp --enable-libsnappy --enable-libsoxr --enable-libspeex --enable-libtheora --enable-libtwolame --enable-libvidstab --enable-libvo-amrwbenc --enable-libvorbis --enable-libvpx --enable-libwavpack --enable-libwebp --enable-libx264 --enable-libx265 --enable-libxavs --enable-libxvid --enable-libzimg --enable-lzma --enable-zlib
  libavutil      55. 67.100 / 55. 67.100
  libavcodec     57.100.103 / 57.100.103
  libavformat    57. 75.100 / 57. 75.100
  libavdevice    57.  7.100 / 57.  7.100
  libavfilter     6. 94.100 /  6. 94.100
  libswscale      4.  7.101 /  4.  7.101
  libswresample   2.  8.100 /  2.  8.100
  libpostproc    54.  6.100 / 54.  6.100
Input #0, mov,mp4,m4a,3gp,3g2,mj2, from 'C:\xampp\htdocs\highq/wp-content/uploads/2017/07/ob_mp4_cc_59633d6a08c06.mp4':
  Metadata:
    major_brand     : isom
    minor_version   : 512
    compatible_brands: isomiso2avc1mp41
    title           : 2291027514278473
    encoder         : Lavf57.75.100
  Duration: 00:00:42.78, start: 0.000000, bitrate: 485 kb/s
    Stream #0:0(und): Video: h264 (Constrained Baseline) (avc1 / 0x31637661), yuv420p, 400x400 [SAR 1:1 DAR 1:1], 464 kb/s, 29.97 fps, 29.97 tbr, 11988 tbn, 59.94 tbc (default)
    Metadata:
      handler_name    : VideoHandler
    Stream #0:1(eng): Audio: aac (HE-AACv2) (mp4a / 0x6134706D), 44100 Hz, stereo, fltp, 19 kb/s (default)
    Metadata:
      handler_name    : SoundHandler
Stream mapping:
  Stream #0:0 -> #0:0 (h264 (native) -> mjpeg (native))
Press [q] to stop, [?] for help
[swscaler @ 0000000003324760] deprecated pixel format used, make sure you did set range correctly
Output #0, mjpeg, to 'C:\xampp\htdocs\highq/wp-content/uploads/2017/07/ob_mp4_cc_59633d6a08c06.mp4.jpg':
  Metadata:
    major_brand     : isom
    minor_version   : 512
    compatible_brands: isomiso2avc1mp41
    title           : 2291027514278473
    encoder         : Lavf57.75.100
    Stream #0:0(und): Video: mjpeg, yuvj420p(pc), 400x400 [SAR 1:1 DAR 1:1], q=2-31, 200 kb/s, 29.97 fps, 29.97 tbn, 29.97 tbc (default)
    Metadata:
      handler_name    : VideoHandler
      encoder         : Lavc57.100.103 mjpeg
    Side data:
      cpb: bitrate max/min/avg: 0/0/200000 buffer size: 0 vbv_delay: -1
frame=    1 fps=0.0 q=5.2 Lsize=      22kB time=00:00:00.03 bitrate=5403.7kbits/s speed=1.28x    
video:22kB audio:0kB subtitle:0kB other streams:0kB global headers:0kB muxing overhead: 0.000000%
